<?xml version="1.0" standalone="no"?>
<!DOCTYPE svg PUBLIC "-//W3C//DTD SVG 20010904//EN"
 "http://www.w3.org/TR/2001/REC-SVG-20010904/DTD/svg10.dtd">
<svg version="1.0" xmlns="http://www.w3.org/2000/svg"
 width="100.000000pt" height="100.000000pt" viewBox="0 0 100.000000 100.000000"
 preserveAspectRatio="xMidYMid meet">

<g transform="translate(0.000000,100.000000) scale(0.100000,-0.100000)"
fill="#ff0000" stroke="none">
<path d="M465 543 c-3 -9 8 -13 35 -13 27 0 38 4 35 13 -3 6 -19 12 -35 12
-16 0 -32 -6 -35 -12z"/>
<path d="M391 248 c-29 -117 -54 -221 -57 -230 -4 -15 1 -18 32 -18 32 0 46 8
86 47 l48 47 48 -47 c40 -39 54 -47 85 -47 20 0 37 2 37 5 0 3 -25 106 -56
230 l-56 225 -58 0 -58 0 -51 -212z m158 40 c11 -51 11 -52 -18 -82 l-31 -30
-30 29 c-26 25 -30 34 -24 60 14 65 22 75 57 75 32 0 34 -2 46 -52z m-103
-136 c9 -14 7 -23 -13 -46 -13 -16 -26 -27 -28 -24 -6 6 16 88 24 88 3 0 11
-8 17 -18z m148 -47 l8 -30 -31 29 c-29 28 -30 31 -14 48 19 21 21 19 37 -47z"/>
</g>
</svg>
