<svg height="512" viewBox="0 0 128 128" width="512" xmlns="http://www.w3.org/2000/svg"><g id="Circle_Grid" data-name="Circle Grid"><circle cx="64" cy="64" fill="#3b5059" r="64"/></g><g id="icon"><g fill="#eeefee"><path d="m61.972 27.712h4.055v33.525h-4.055z"/><path d="m61.972 66.762h4.055v33.525h-4.055z"/><path d="m61.972 27.712h4.055v33.525h-4.055z"/><path d="m61.972 66.762h4.055v33.525h-4.055z"/><path d="m75.779 33.431h4.055v33.525h-4.055z" transform="matrix(.707 .707 -.707 .707 58.281 -40.316)"/><path d="m48.166 61.044h4.055v33.525h-4.055z" transform="matrix(.707 .707 -.707 .707 69.719 -12.703)"/><path d="m75.779 33.431h4.055v33.525h-4.055z" transform="matrix(.707 .707 -.707 .707 58.281 -40.316)"/><path d="m48.166 61.044h4.055v33.525h-4.055z" transform="matrix(.707 .707 -.707 .707 69.719 -12.703)"/><path d="m81.498 47.237h4.055v33.525h-4.055z" transform="matrix(0 1 -1 0 147.525 -19.525)"/><path d="m42.447 47.237h4.055v33.525h-4.055z" transform="matrix(0 1 -1 0 108.475 19.525)"/><path d="m81.498 47.237h4.055v33.525h-4.055z" transform="matrix(0 1 -1 0 147.525 -19.525)"/><path d="m42.447 47.237h4.055v33.525h-4.055z" transform="matrix(0 1 -1 0 108.475 19.525)"/><path d="m75.779 61.044h4.055v33.525h-4.055z" transform="matrix(-.707 .707 -.707 -.707 187.841 77.806)"/><path d="m48.166 33.431h4.055v33.525h-4.055z" transform="matrix(-.707 .707 -.707 -.707 121.178 50.194)"/><path d="m75.779 61.044h4.055v33.525h-4.055z" transform="matrix(-.707 .707 -.707 -.707 187.841 77.806)"/><path d="m48.166 33.431h4.055v33.525h-4.055z" transform="matrix(-.707 .707 -.707 -.707 121.178 50.194)"/></g><circle cx="64" cy="64" fill="#828a9e" r="12.971"/><circle cx="64" cy="27.712" fill="#f6c863" r="6.711" transform="matrix(.197 -.98 .98 .197 24.21 84.99)"/><circle cx="64" cy="100.288" fill="#f6c863" r="6.711" transform="matrix(.98 -.197 .197 .98 -18.521 14.591)"/><circle cx="89.659" cy="38.341" fill="#69b0ee" r="6.711" transform="matrix(.833 -.554 .554 .833 -6.229 56.066)"/><circle cx="38.341" cy="89.659" fill="#69b0ee" r="6.711" transform="matrix(.554 -.833 .833 .554 -57.548 71.934)"/><circle cx="100.288" cy="64" fill="#ef5261" r="6.711" transform="matrix(.197 -.98 .98 .197 17.767 149.696)"/><circle cx="27.712" cy="64" fill="#ef5261" r="6.711" transform="matrix(.98 -.197 .197 .98 -12.078 6.722)"/><circle cx="89.659" cy="89.659" fill="#2cbfae" r="6.711" transform="matrix(.833 -.554 .554 .833 -34.648 64.653)"/><circle cx="38.341" cy="38.341" fill="#2cbfae" r="6.711" transform="matrix(.554 -.833 .833 .554 -14.816 49.034)"/></g></svg>